<svg width="98" height="23" viewBox="0 0 98 23" fill="none" xmlns="http://www.w3.org/2000/svg">
<path d="M33.7391 17.4369H35.4911L30.8682 7.13112H29.0721L24.4492 17.4369H26.2012L27.1729 15.2727H32.7527L33.7391 17.4369ZM32.1491 13.771H27.7912L29.9702 8.86837L32.1491 13.771ZM40.5788 16.1266C39.2538 16.1266 38.2969 15.1107 38.2969 13.8151C38.2969 12.5195 39.1802 11.5037 40.5788 11.5037C41.9628 11.5037 42.8756 12.4459 42.8756 13.8151C42.8756 15.1696 41.9039 16.1266 40.5788 16.1266ZM38.1644 20.8083V16.3768C38.7091 17.2749 39.8427 17.5988 40.7261 17.5988C42.9786 17.5988 44.392 16.0088 44.392 13.8151C44.392 11.6215 42.8903 10.0462 40.7261 10.0315C39.7544 10.0315 38.7238 10.4731 38.1644 11.3565L38.076 10.1787H36.6479V20.8083H38.1644ZM49.9386 16.1266C48.6135 16.1266 47.6566 15.1107 47.6566 13.8151C47.6566 12.5195 48.5399 11.5037 49.9386 11.5037C51.3225 11.5037 52.2353 12.4459 52.2353 13.8151C52.2353 15.1696 51.2636 16.1266 49.9386 16.1266ZM47.5241 20.8083V16.3768C48.0688 17.2749 49.2024 17.5988 50.0858 17.5988C52.3383 17.5988 53.7517 16.0088 53.7517 13.8151C53.7517 11.6215 52.25 10.0462 50.0858 10.0315C49.1141 10.0315 48.0835 10.4731 47.5241 11.3565L47.4357 10.1787H46.0076V20.8083H47.5241ZM66.704 8.57392C65.8354 7.19001 64.3484 6.83667 62.8614 6.83667C61.0064 6.83667 58.8716 7.66113 58.8864 9.79589C58.8864 12.0043 60.8297 12.5195 62.8762 12.7993C64.319 12.9907 65.5115 13.3735 65.5115 14.4924C65.5115 15.7879 64.1423 16.2002 62.9056 16.2002C61.7131 16.2002 60.4322 15.7585 59.6961 14.5071L58.4594 15.3315C59.4017 17.0688 60.9181 17.6724 62.8909 17.6724C65.0404 17.6724 67.1457 16.8038 67.1604 14.4924C67.1604 12.1809 65.1434 11.592 63.0234 11.2976C61.6689 11.1062 60.5206 10.8265 60.5206 9.82534C60.5206 8.83893 61.5217 8.26475 62.9056 8.26475C63.9804 8.27947 64.9668 8.70643 65.4526 9.41311L66.704 8.57392ZM69.2749 8.25003V10.1934H67.8763V11.5037H69.2749V14.9635C69.2749 16.6713 70.173 17.5694 71.7483 17.5252C72.2636 17.5252 72.7053 17.4221 73.2058 17.2013L72.7641 15.9057C72.4697 16.0529 72.1311 16.156 71.8366 16.156C71.13 16.156 70.7913 15.7291 70.7913 14.9635V11.5037H72.9261V10.1934H70.8061V8.08808L69.2749 8.25003ZM77.7437 10.0315C75.4911 10.0315 74.0042 11.6804 74.0042 13.8151C74.0042 15.9646 75.4764 17.5841 77.7437 17.5841C80.0257 17.5841 81.5126 15.9646 81.5126 13.8151C81.5126 11.6804 79.9815 10.0315 77.7437 10.0315ZM77.7437 11.4301C79.0687 11.4301 79.9815 12.5343 79.9815 13.8151C79.9815 15.1107 79.1423 16.1707 77.7437 16.1707C76.3598 16.1707 75.5206 15.1107 75.5206 13.8151C75.5206 12.5343 76.3598 11.4301 77.7437 11.4301ZM83.1158 10.1787V17.4369H84.6322V13.506C84.6322 12.1662 85.545 11.5184 86.5903 11.5184C87.1497 11.5184 87.5031 11.6656 87.8711 11.9601L88.5631 10.6351C88.1509 10.267 87.4736 10.0167 86.767 10.0167C85.9867 10.0167 85.1622 10.2081 84.6322 11.1356L84.5291 10.1787H83.1158ZM96.4213 14.3746C96.7011 11.4154 95.111 9.98728 92.7702 9.98728C90.5029 9.98728 88.957 11.5626 88.957 13.771C88.957 16.0971 90.4882 17.6135 92.8732 17.6135C93.9921 17.6135 95.2435 17.2013 95.9944 16.3768L95.008 15.4199C94.5663 15.9204 93.6388 16.2002 92.9027 16.2002C91.5776 16.2002 90.6648 15.4788 90.5323 14.3746H96.4213ZM90.5618 13.0937C90.7973 11.9454 91.7101 11.3418 92.8143 11.3418C94.0363 11.3418 94.8755 11.9454 94.9638 13.0937H90.5618Z" fill="#212121"/>
<path fill-rule="evenodd" clip-rule="evenodd" d="M10.1969 2.65113C11.5993 0.809607 13.5487 0.80069 13.5487 0.80069C13.5487 0.80069 13.8386 2.53211 12.4455 4.20008C10.958 5.98089 9.26708 5.68969 9.26708 5.68969C9.26708 5.68969 8.94969 4.28891 10.1969 2.65113Z" fill="#212121"/>
<path fill-rule="evenodd" clip-rule="evenodd" d="M9.44574 6.90251C10.1673 6.90251 11.506 5.91435 13.2489 5.91435C16.249 5.91435 17.429 8.04124 17.429 8.04124C17.429 8.04124 15.1209 9.21701 15.1209 12.0704C15.1209 15.289 17.9963 16.3982 17.9963 16.3982C17.9963 16.3982 15.9863 22.0353 13.2713 22.0353C12.0244 22.0353 11.0547 21.198 9.7411 21.198C8.40235 21.198 7.07358 22.0665 6.20816 22.0665C3.72894 22.0665 0.597034 16.7193 0.597034 12.4212C0.597034 8.1925 3.24803 5.97403 5.73483 5.97403C7.35069 5.97368 8.6051 6.90251 9.44574 6.90251Z" fill="#212121"/>
</svg>
